<?xml version="1.0" standalone="no"?>
<!DOCTYPE svg PUBLIC "-//W3C//DTD SVG 20010904//EN"
 "http://www.w3.org/TR/2001/REC-SVG-20010904/DTD/svg10.dtd">
<svg version="1.0" xmlns="http://www.w3.org/2000/svg"
 width="700.000000pt" height="700.000000pt" viewBox="0 0 700.000000 700.000000"
 preserveAspectRatio="xMidYMid meet">
<metadata>
Created by potrace 1.14, written by Peter Selinger 2001-2017
</metadata>
<g transform="translate(0.000000,700.000000) scale(0.100000,-0.100000)"
fill="#000000" stroke="none">
<path d="M3433 6623 c-2 -53 -7 -121 -13 -152 -5 -31 -12 -69 -15 -86 -36
-211 -173 -624 -300 -900 -59 -130 -180 -363 -212 -410 -7 -11 -13 -25 -13
-32 0 -34 97 -89 198 -113 56 -13 78 -30 40 -31 -13 0 -32 -2 -43 -5 -11 -2
-36 -6 -56 -9 -20 -2 -47 -9 -60 -14 -13 -5 -28 -9 -34 -9 -35 -3 -119 -29
-170 -52 -45 -21 -76 -46 -127 -101 -36 -41 -90 -99 -120 -130 -46 -49 -203
-218 -263 -283 -77 -85 -177 -197 -201 -226 -16 -19 -31 -37 -34 -40 -3 -3
-38 -44 -77 -91 -88 -104 -99 -129 -78 -172 16 -33 84 -89 123 -101 28 -9 19
-26 -13 -26 -33 0 -210 -61 -288 -100 -88 -43 -125 -85 -195 -221 -74 -143
-104 -226 -131 -355 -31 -150 -33 -174 -36 -379 -3 -234 21 -466 55 -520 26
-42 111 -100 212 -144 l78 -34 -40 -21 c-105 -56 -168 -137 -156 -199 8 -42
108 -247 164 -337 118 -192 270 -342 432 -428 82 -43 168 -78 175 -70 3 3 -6
25 -19 49 -37 70 -93 218 -115 305 -44 174 -67 418 -51 546 4 30 2 49 -4 52
-7 3 -6 5 2 5 6 1 12 12 12 26 0 40 38 190 64 255 33 80 162 308 247 436 128
190 257 340 566 654 111 113 211 216 223 230 12 14 36 41 54 60 54 60 187 222
242 296 390 527 580 1033 578 1539 -1 92 -5 146 -20 265 -12 102 -78 343 -118
435 -81 186 -147 308 -239 445 -49 73 -150 207 -198 262 l-24 27 -2 -96z"/>
<path d="M4404 5425 c8 -32 24 -107 30 -145 3 -19 8 -45 10 -57 7 -34 17 -140
21 -223 2 -41 4 -78 4 -82 2 -23 155 36 189 72 20 21 20 24 5 49 -88 143 -265
407 -259 386z"/>
<path d="M4464 4843 c0 -71 -18 -217 -39 -310 -3 -13 -7 -32 -9 -42 -32 -143
-100 -330 -175 -481 -182 -364 -428 -684 -801 -1040 -242 -231 -344 -332 -406
-405 -55 -64 -182 -214 -217 -255 -236 -278 -348 -630 -313 -988 4 -45 10 -80
14 -78 4 2 8 -12 8 -33 3 -75 74 -254 142 -361 145 -224 349 -350 678 -419
146 -30 217 -36 424 -36 171 0 249 5 340 22 76 15 111 23 185 46 39 11 72 21
75 22 58 18 193 84 267 131 353 227 602 524 737 879 15 39 39 95 53 125 53
111 35 168 -78 247 l-57 39 83 42 c46 24 101 61 122 82 37 39 39 43 54 157 12
86 16 177 14 333 -2 118 -5 224 -8 235 -2 11 -8 52 -12 90 -7 75 -58 347 -75
405 -6 19 -13 58 -16 85 -8 76 -23 113 -57 145 -39 36 -134 84 -241 120 l-80
27 67 32 c80 38 125 75 142 114 13 32 12 35 -55 197 -62 151 -220 468 -327
655 -12 22 -26 47 -30 55 -24 52 -59 90 -106 113 -54 27 -191 70 -262 81 l-41
7 0 -38z"/>
</g>
</svg>
